<?xml version="1.0" standalone="no"?>
<!DOCTYPE svg PUBLIC "-//W3C//DTD SVG 20010904//EN"
 "http://www.w3.org/TR/2001/REC-SVG-20010904/DTD/svg10.dtd">
<svg version="1.0" xmlns="http://www.w3.org/2000/svg"
 width="1024.000000pt" height="1024.000000pt" viewBox="0 0 1024.000000 1024.000000"
 preserveAspectRatio="xMidYMid meet">

<g transform="translate(0.000000,1024.000000) scale(0.100000,-0.100000)"
fill="#000000" stroke="none">
<path d="M5010 9426 c-162 -44 -276 -174 -299 -339 -20 -146 27 -277 136 -377
l63 -57 0 -157 c0 -145 1 -157 18 -152 45 13 185 26 288 26 l114 0 0 143 0
143 60 52 c44 39 69 72 97 129 37 74 38 80 38 182 0 98 -2 111 -31 172 -90
190 -292 288 -484 235z"/>
<path d="M2506 8649 c-130 -19 -251 -60 -354 -120 -80 -48 -220 -190 -258
-264 -124 -237 -138 -563 -43 -954 68 -278 204 -633 371 -965 27 -54 48 -99
46 -101 -2 -1 -68 -35 -148 -75 -286 -142 -471 -267 -638 -432 -51 -51 -113
-120 -137 -153 -36 -49 -52 -63 -93 -77 -184 -65 -283 -318 -198 -504 30 -65
111 -154 165 -180 29 -14 46 -32 64 -69 36 -75 138 -205 215 -276 161 -149
399 -303 644 -419 l135 -63 -97 -206 c-195 -414 -309 -744 -366 -1056 -26
-143 -26 -451 0 -550 27 -105 86 -221 153 -305 236 -296 642 -371 1160 -214
65 19 177 58 248 86 161 64 547 258 720 362 213 129 533 345 683 462 l141 109
1 128 0 129 -47 -40 c-98 -81 -374 -281 -548 -398 -443 -297 -832 -502 -1178
-619 -191 -64 -300 -86 -457 -92 -247 -10 -394 39 -531 176 -84 85 -117 143
-150 266 -27 103 -30 295 -5 440 46 276 190 687 373 1067 71 147 89 176 102
169 9 -5 96 -36 194 -70 401 -137 870 -238 1435 -309 l223 -28 140 -133 c76
-73 139 -130 139 -126 0 3 -11 21 -24 38 -65 86 -112 216 -124 346 -6 57 -10
66 -28 69 -35 5 -243 211 -467 462 -239 268 -486 573 -651 804 l-114 159 76
106 c192 271 482 624 707 862 55 58 165 174 244 258 120 127 306 304 519 493
l42 38 0 136 0 135 -132 -120 c-73 -66 -176 -161 -229 -211 l-97 -90 -178 -20
c-650 -73 -1169 -189 -1627 -364 l-69 -26 -78 163 c-241 498 -366 886 -389
1207 -19 272 32 445 173 586 172 172 419 218 777 143 284 -59 695 -226 1028
-419 68 -39 127 -68 131 -63 4 4 17 33 29 63 13 30 30 66 38 78 8 13 13 25 11
27 -17 15 -168 105 -265 159 -503 278 -1072 434 -1407 385z m1552 -2187 c-18
-21 -119 -131 -225 -245 -234 -252 -409 -461 -601 -717 -81 -107 -148 -197
-149 -199 -13 -19 -523 801 -523 839 0 13 412 145 605 193 217 55 423 97 645
131 196 30 216 33 253 35 l29 1 -34 -38z m-1654 -462 c63 -118 275 -465 405
-660 75 -113 137 -208 139 -211 2 -4 -53 -91 -121 -195 -164 -251 -287 -450
-381 -616 -72 -127 -79 -136 -100 -128 -51 19 -316 155 -394 202 -170 102
-332 238 -424 355 l-46 59 44 23 c59 32 130 109 162 179 23 49 27 70 27 152 0
88 -3 101 -33 162 -23 46 -51 84 -92 121 l-60 54 103 99 c165 160 313 262 567
391 79 41 151 72 160 71 8 -2 28 -28 44 -58z m837 -1270 c249 -332 522 -653
768 -903 87 -88 93 -97 66 -92 -16 2 -111 16 -210 31 -329 47 -696 129 -1005
224 -117 36 -288 97 -299 106 -12 11 219 404 382 649 122 183 130 195 138 192
4 -1 76 -94 160 -207z"/>
<path d="M7415 8649 c-260 -34 -623 -154 -960 -319 -140 -69 -415 -224 -415
-234 0 -8 79 -176 83 -176 3 0 56 30 118 67 417 243 936 435 1249 462 266 22
470 -37 598 -173 100 -107 151 -237 167 -427 26 -289 -125 -821 -375 -1327
l-99 -201 -83 31 c-439 163 -1014 289 -1658 363 -110 13 -139 20 -157 37 l-23
21 -72 -69 c-40 -38 -92 -86 -115 -107 -24 -20 -43 -39 -43 -42 0 -3 24 -5 53
-6 141 -2 124 9 348 -224 397 -411 688 -757 936 -1112 l64 -93 -72 -102 c-253
-360 -625 -802 -969 -1151 l-175 -177 -237 -12 -238 -12 0 -96 0 -95 122 5
c68 3 124 5 125 5 1 0 -41 -38 -92 -85 -51 -47 -94 -89 -94 -94 -1 -5 20 -32
47 -60 26 -28 54 -61 62 -73 15 -22 18 -20 210 156 l194 179 86 6 c130 11 294
33 526 71 437 73 824 172 1129 290 65 25 119 44 121 43 8 -9 130 -263 176
-368 297 -674 376 -1161 236 -1450 -65 -134 -204 -242 -372 -288 -88 -24 -350
-24 -466 2 -352 75 -836 302 -1312 612 -227 148 -366 233 -372 226 -4 -3 -6
-19 -6 -36 -1 -17 -7 -59 -14 -93 l-13 -62 106 -74 c303 -212 557 -365 836
-502 295 -145 525 -229 752 -274 328 -65 614 -14 835 149 215 158 324 469 289
819 -36 352 -150 700 -417 1273 -35 75 -64 138 -64 141 0 2 82 45 183 95 285
142 476 271 638 432 85 84 199 226 199 248 0 6 17 14 38 17 83 14 99 19 153
46 71 35 142 107 177 178 24 51 27 66 27 166 0 104 -2 114 -33 177 -41 85
-128 167 -209 199 -43 17 -79 23 -143 23 -78 1 -87 3 -104 26 -11 14 -61 67
-110 118 -156 162 -347 293 -633 438 -89 45 -167 84 -173 86 -6 2 31 89 89
208 194 399 314 750 365 1070 80 491 -48 845 -369 1024 -176 99 -407 136 -650
105z m-906 -2200 c224 -38 520 -103 712 -158 135 -39 450 -139 458 -147 12
-11 -259 -465 -412 -690 l-110 -161 -85 116 c-115 157 -268 351 -395 499 -92
107 -172 195 -479 527 l-67 72 97 -14 c53 -7 180 -27 281 -44z m1514 -453
c259 -125 436 -246 612 -418 l110 -107 -26 -28 c-143 -155 -129 -402 30 -558
23 -21 41 -44 41 -50 0 -17 -133 -166 -201 -226 -153 -133 -340 -252 -566
-361 -78 -37 -144 -68 -147 -68 -3 0 -31 46 -62 103 -93 165 -237 397 -389
624 l-142 212 127 188 c169 253 331 513 399 645 31 59 62 108 69 108 7 0 72
-29 145 -64z m-725 -1259 c183 -273 394 -629 380 -642 -10 -10 -332 -117 -481
-159 -188 -54 -457 -115 -657 -150 -157 -28 -390 -59 -395 -54 -2 2 66 78 151
168 261 276 490 551 737 883 65 87 122 155 127 152 5 -3 67 -92 138 -198z"/>
<path d="M5023 8265 c-194 -31 -404 -115 -569 -225 -113 -76 -253 -219 -292
-299 -18 -37 -32 -80 -32 -100 1 -49 30 -111 79 -164 l41 -44 -45 -39 c-60
-51 -97 -71 -162 -85 -29 -7 -53 -16 -53 -20 0 -17 40 -29 95 -29 45 0 56 -3
52 -14 -17 -45 -29 -97 -24 -103 10 -10 53 34 89 91 18 28 45 66 60 84 15 18
31 44 34 58 5 21 11 24 28 19 11 -4 52 -12 89 -18 107 -17 268 17 403 86 68
35 193 136 252 204 126 146 320 203 446 129 124 -73 174 -219 128 -373 -28
-90 -68 -151 -167 -253 l-83 -85 -7 -284 -7 -284 83 64 c136 103 366 339 437
447 111 171 163 330 163 502 0 119 -15 189 -62 283 -109 217 -303 378 -534
442 -82 22 -332 29 -442 10z m-339 -336 c13 -7 30 -25 37 -41 10 -25 9 -33 -8
-56 -23 -31 -75 -41 -100 -21 -37 32 -32 97 10 117 29 14 32 14 61 1z"/>
<path d="M5240 7675 c-41 -29 -116 -90 -165 -136 -50 -46 -107 -97 -126 -114
l-36 -30 22 -796 c12 -438 25 -801 29 -807 8 -13 165 -120 244 -165 l62 -36 0
57 c0 31 7 287 15 567 22 806 38 1479 34 1497 -3 13 -18 6 -79 -37z"/>
<path d="M4795 6688 c-227 -189 -387 -407 -429 -588 -18 -76 -21 -207 -5 -282
6 -29 28 -89 49 -133 88 -183 236 -313 573 -504 203 -116 337 -225 381 -310
37 -71 29 -172 -19 -229 -23 -28 -24 -33 -31 -297 l-7 -269 29 18 c156 100
306 267 369 410 66 149 78 337 31 482 -69 216 -221 359 -649 614 -192 114
-292 228 -304 344 -7 65 9 116 49 162 l30 34 -9 295 -8 295 -50 -42z"/>
<path d="M4965 4984 c9 -170 25 -746 30 -1094 l5 -315 38 -34 c20 -18 66 -53
102 -77 l65 -44 6 102 c4 57 12 315 19 573 7 259 16 542 20 630 l7 160 -46 43
c-41 38 -199 144 -238 159 -12 5 -13 -10 -8 -103z"/>
<path d="M4832 4216 c-135 -128 -236 -284 -261 -404 -39 -188 48 -414 225
-583 33 -30 131 -103 220 -161 179 -118 243 -179 271 -261 23 -69 21 -175 -5
-247 -19 -53 -41 -290 -26 -290 13 0 93 62 136 107 141 145 197 359 138 533
-51 154 -121 244 -278 357 -141 102 -243 185 -277 225 -69 82 -95 202 -60 284
12 30 13 67 5 247 -6 117 -12 223 -13 237 -2 23 -7 20 -75 -44z"/>
<path d="M5012 2662 l6 -320 -40 -38 c-49 -48 -118 -143 -152 -210 -69 -137
-45 -303 59 -420 l35 -39 -27 60 c-20 44 -28 82 -31 141 -4 71 -1 87 21 135
24 49 119 159 139 159 4 0 8 -48 8 -107 0 -176 29 -970 40 -1081 10 -104 24
-152 41 -135 21 21 45 379 59 863 30 1080 31 1162 12 1183 -17 20 -93 78 -146
111 l-29 18 5 -320z"/>
</g>
</svg>
